<svg width="91" height="91" viewBox="0 0 91 91" fill="none" xmlns="http://www.w3.org/2000/svg">
<g clip-path="url(#clip0_2_2372)">
<path d="M36.8783 37.7817C41.7137 40.1741 48.2581 36.842 51.4687 30.3528C54.6792 23.864 53.3582 16.6386 48.5229 14.2462C43.6889 11.8545 37.1434 15.1877 33.9329 21.6766C30.7222 28.1659 32.0443 35.39 36.8783 37.7817Z" fill="#DC975D"/>
<path d="M57.2223 62.0962C57.1636 61.7622 57.1056 61.4458 57.1117 61.2016C57.2275 56.0348 54.3011 48.4282 45.655 43.9972L45.321 43.8296C36.7478 39.5879 29.0952 41.6343 24.7904 44.9653C24.6425 45.0789 24.384 45.1934 24.1103 45.3143C23.7876 45.4551 23.4644 45.6024 23.1597 45.7857C19.9691 47.6983 17.4875 50.4014 16.1741 53.397C14.778 56.5765 14.8441 59.7179 16.3545 62.2385C16.965 63.2563 17.7875 64.0238 18.8007 64.5251C20.8901 65.5589 23.3853 65.3285 26.2765 65.0623C28.1156 64.891 30.0149 64.715 31.9638 64.8443C32.1746 64.8742 32.9624 65.1504 34.1769 65.7513C35.6211 66.4658 36.5947 67.1075 36.7784 67.2936C38.0122 68.7715 38.9462 70.3715 39.8505 71.9172C41.2357 74.289 42.5441 76.5277 44.6499 77.5696C45.5536 78.0168 46.5475 78.2117 47.6063 78.151C53.4471 77.8165 57.8317 71.1396 57.3811 63.2684C57.3585 62.8734 57.2922 62.4823 57.2223 62.0962Z" fill="#DC975D"/>
<path d="M55.523 47.0065C60.3561 49.3978 66.9013 46.0662 70.112 39.5769C73.3224 33.0882 72.0007 25.8623 67.1676 23.471C62.3317 21.0784 55.7867 24.4118 52.5762 30.9007C49.3655 37.39 50.6871 44.6138 55.523 47.0065Z" fill="#DC975D"/>
<path d="M72.9123 48.0885C69.0369 46.1711 64.0154 48.6895 61.4768 53.8204C58.9394 58.9489 59.9854 64.47 63.859 66.3865C67.7322 68.3029 72.7576 65.7858 75.295 60.6572C77.8336 55.5265 76.7873 50.0058 72.9123 48.0885Z" fill="#DC975D"/>
<path d="M28.5766 37.5424C31.1151 32.4117 30.0689 26.891 26.1952 24.9744C22.3214 23.0577 17.2975 25.5752 14.759 30.7059C12.2215 35.8344 13.2681 41.3558 17.1419 43.2724C21.0157 45.1891 26.0391 42.671 28.5766 37.5424Z" fill="#DC975D"/>
</g>
<defs>
<clipPath id="clip0_2_2372">
<rect width="67.5403" height="67.5402" fill="white" transform="translate(29.9513) rotate(26.3248)"/>
</clipPath>
</defs>
</svg>
