<svg width="93" height="93" viewBox="0 0 93 93" fill="none" xmlns="http://www.w3.org/2000/svg">
<g clip-path="url(#clip0_103_606)">
<path d="M35.3954 49.0677C40.0675 46.3702 40.9233 39.0765 37.3033 32.8064C33.6835 26.5368 26.9381 23.6297 22.2661 26.3271C17.5953 29.0237 16.7398 36.3191 20.3597 42.5888C23.9797 48.8589 30.7246 51.7644 35.3954 49.0677Z" fill="#DC975D"/>
<path d="M66.9101 45.6196C66.5997 45.4832 66.3042 45.3561 66.1044 45.2156C61.8688 42.2543 53.916 40.4719 45.4345 45.2101L45.1097 45.3952C36.8261 50.1778 34.2858 57.681 34.671 63.1104C34.6835 63.2965 34.6354 63.5751 34.5843 63.8699C34.5225 64.2164 34.4659 64.5671 34.4495 64.9223C34.2721 68.638 35.1455 72.2021 36.9102 74.956C38.782 77.8809 41.4329 79.5677 44.368 79.7084C45.5535 79.7646 46.6483 79.5058 47.6274 78.9405C49.6462 77.775 50.838 75.5708 52.2196 73.0172C53.0968 71.3916 54.0035 69.7135 55.1917 68.1633C55.3335 68.0044 56.0001 67.502 57.1736 66.8245C58.569 66.0188 59.6428 65.5644 59.8996 65.5147C61.8136 65.3075 63.663 65.4173 65.4508 65.5219C68.1927 65.6842 70.7812 65.8368 72.8159 64.662C73.6891 64.1579 74.4024 63.4388 74.939 62.5241C77.8992 57.4779 74.7739 50.1268 67.9737 46.1374C67.6325 45.9372 67.2702 45.7755 66.9101 45.6196Z" fill="#DC975D"/>
<path d="M53.4104 38.6667C58.0802 35.9706 58.9369 28.6763 55.3169 22.4063C51.6971 16.1366 44.9509 13.2299 40.2811 15.9261C35.6085 18.6238 34.7535 25.9189 38.3733 32.1887C41.9933 38.4587 48.7378 41.3645 53.4104 38.6667Z" fill="#DC975D"/>
<path d="M63.9529 24.7954C60.2084 26.9573 59.5199 32.5326 62.3822 37.4902C65.2432 42.4455 70.4178 44.6363 74.1605 42.4755C77.9029 40.3148 78.5948 34.737 75.7338 29.7817C72.8716 24.8242 67.6971 22.6337 63.9529 24.7954Z" fill="#DC975D"/>
<path d="M30.5931 55.8436C27.7309 50.8862 22.5565 48.6957 18.8136 50.8566C15.0706 53.0177 14.38 58.5944 17.2421 63.5518C20.1031 68.5072 25.2782 70.6977 29.0212 68.5367C32.7642 66.3757 33.4541 60.799 30.5931 55.8436Z" fill="#DC975D"/>
</g>
<defs>
<clipPath id="clip0_103_606">
<rect width="67.5403" height="67.5402" fill="white" transform="translate(0.112793 33.8829) rotate(-30)"/>
</clipPath>
</defs>
</svg>
